<?xml version="1.0" encoding="UTF-8"?>
<svg id="Layer_2" xmlns="http://www.w3.org/2000/svg" version="1.1" viewBox="0 0 100.6 98.1">
  <g id="Layer_1-2">
    <g>
      <path d="M48.2,49.5c-.1-.5-.2-1.1-.3-1.6,0-.2,0-.5,0-.7,0-.4-.1-.9-.2-1.3,0-.3,0-.5,0-.8,0-.4,0-.8,0-1.3v-.8c0-.4,0-.8,0-1.2,0-.3,0-.6,0-.8,0-.4,0-.8.2-1.3,0-.3,0-.5.1-.8,0-.5.2-.9.3-1.4,0-.2,0-.4.1-.7.2-.7.3-1.3.6-2,2.8-8.5,9.5-15.3,18-18,.6-.2,1.3-.4,1.9-.5.2,0,.4,0,.6-.1.5-.1.9-.2,1.4-.3.2,0,.4,0,.6-.1.6,0,1.2-.2,1.8-.2,0,0,.1,0,.2,0h0C69.6,6.1,60.5,0,50.3,0s-20.5,6.9-23.8,17.3h0c-.6,1.9-1,3.8-1.1,5.8,0,.6,0,1.3,0,2,0,8,3.9,15.6,10.3,20.3.5.4,1,.7,1.5,1,.2.1.4.2.5.3.4.2.7.4,1.1.6.2.1.4.2.7.3.3.2.7.3,1,.5.2,0,.5.2.7.3.3.1.7.3,1,.4.2,0,.5.2.7.2.4.1.7.2,1.1.3.2,0,.5.1.7.2.4,0,.8.2,1.2.2.2,0,.4,0,.6.1.6,0,1.2.2,1.8.2,0,0,0,0,0,0,0-.2,0-.3,0-.5h0Z"/>
      <path d="M47.7,53c-.5,0-1.1-.1-1.6-.2-.2,0-.5,0-.8-.1-.4,0-.9-.2-1.3-.3-.3,0-.5-.1-.8-.2-.4,0-.8-.2-1.2-.3-.3,0-.5-.2-.8-.3-.4-.1-.8-.3-1.2-.4-.3,0-.5-.2-.8-.3-.4-.2-.8-.3-1.2-.5-.2-.1-.5-.2-.7-.3-.4-.2-.8-.5-1.2-.7s-.4-.2-.6-.3c-.6-.4-1.2-.8-1.7-1.2-7.2-5.3-11.6-13.8-11.6-22.7s0-1.3,0-2c0-.2,0-.4,0-.6,0-.5.1-1,.2-1.4,0-.2,0-.4,0-.6.1-.6.2-1.2.3-1.7,0,0,0-.1,0-.2h0c-10,.7-18.7,7.5-21.8,17.2-3.4,10.3.3,21.6,9.1,28,2.1,1.6,4.5,2.8,7,3.6,7.6,2.5,16,1.1,22.5-3.6.5-.4,1-.8,1.5-1.2.2-.1.3-.3.5-.4.3-.3.6-.6.9-.8.2-.2.3-.3.5-.5.3-.3.5-.5.8-.8.2-.2.3-.4.5-.6.2-.3.5-.6.7-.9.2-.2.3-.4.4-.6.2-.3.4-.6.6-1,.1-.2.3-.4.4-.6.2-.4.4-.7.6-1.1,0-.2.2-.3.3-.5.3-.5.5-1.1.8-1.7h-.5c0,0,0,0,0,0Z"/>
      <path d="M51.6,48.9c.5-.3.9-.5,1.4-.8.2-.1.5-.2.7-.3.4-.2.8-.4,1.2-.5.3-.1.5-.2.8-.3.4-.2.8-.3,1.2-.4.3,0,.5-.2.8-.3.4-.1.8-.2,1.2-.3.3,0,.5-.1.8-.2.4,0,.8-.2,1.2-.2.3,0,.5,0,.8-.1.5,0,.9-.1,1.4-.2.2,0,.5,0,.7,0,.7,0,1.4,0,2.1,0h0c9,0,17.4,4.3,22.7,11.6.4.5.8,1.1,1.1,1.7,0,.2.2.3.3.5.2.4.5.8.7,1.3,0,.2.2.4.3.5.3.5.5,1.1.7,1.6,0,0,0,.1,0,.2,0,0,0,0,0,0,7.7-6.5,10.7-17,7.5-26.8-3.4-10.4-12.9-17.3-23.8-17.3h0c-2,0-3.9.2-5.8.7-.6.1-1.3.3-1.9.5-7.6,2.5-13.6,8.5-16.1,16.1-.2.6-.4,1.2-.5,1.8,0,.2,0,.4-.1.6,0,.4-.2.8-.2,1.2,0,.2,0,.5,0,.7,0,.4,0,.8-.1,1.1,0,.2,0,.5,0,.7,0,.4,0,.8,0,1.1v.7c0,.4,0,.8,0,1.2,0,.2,0,.5,0,.7,0,.4,0,.8.2,1.3,0,.2,0,.4,0,.6,0,.6.2,1.2.4,1.8,0,0,0,0,0,0,.1,0,.3-.2.4-.2h0Z"/>
      <path d="M53.2,52c.4.3.8.7,1.2,1.1s.3.4.5.5c.3.3.6.6.9,1,.2.2.3.4.5.6.3.3.5.7.8,1,.2.2.3.5.5.7.2.3.5.7.7,1,.2.2.3.5.4.7.2.4.4.7.6,1.1.1.2.3.5.4.7.2.4.4.8.6,1.3,0,.2.2.4.3.6.3.6.5,1.3.7,2,2.8,8.5,1.3,17.9-4,25.2-.4.5-.8,1.1-1.2,1.6-.1.2-.3.3-.4.4-.3.4-.7.7-1,1.1-.1.2-.3.3-.4.4-.4.4-.8.8-1.3,1.2,0,0-.1.1-.2.2,0,0,0,0,0,0,8.6,5.3,19.5,4.9,27.8-1.1,8.8-6.4,12.5-17.7,9.1-28-.8-2.5-2-4.8-3.6-7-4.7-6.5-12.3-10.3-20.3-10.3h0c-.6,0-1.2,0-1.9,0-.2,0-.4,0-.6,0-.4,0-.8,0-1.2.2-.2,0-.5,0-.7.1-.4,0-.8.1-1.1.2-.2,0-.5.1-.7.2-.4,0-.7.2-1.1.3-.2,0-.5.2-.7.2-.4.1-.7.2-1.1.4-.2,0-.4.2-.7.3-.4.2-.8.3-1.1.5-.2,0-.4.2-.5.3-.5.3-1.1.6-1.6.9,0,0,0,0,0,0,.1.1.2.2.4.3h0Z"/>
      <path d="M50.8,54.6c-.2.5-.4,1-.7,1.4-.1.2-.2.5-.4.7-.2.4-.4.8-.6,1.1-.1.2-.3.5-.4.7-.2.3-.5.7-.7,1-.2.2-.3.5-.5.7-.2.3-.5.7-.8,1-.2.2-.4.4-.5.6-.3.3-.6.6-.9.9-.2.2-.4.4-.6.6-.3.3-.7.6-1,1-.2.2-.3.3-.5.4-.5.4-1.1.9-1.7,1.3-.5.4-1.1.8-1.7,1.1-.2,0-.3.2-.5.3-.4.2-.9.5-1.3.7-.2,0-.3.2-.5.3-.6.3-1.2.6-1.8.8,0,0,0,0,0,0-.6.2-1.2.5-1.8.7-.2,0-.4.1-.6.2-.5.1-.9.3-1.4.4-.2,0-.4,0-.5.1-.6.2-1.3.3-1.9.4,0,0-.1,0-.1,0-.6,0-1.2.2-1.8.2-.2,0-.4,0-.6,0-.5,0-1,0-1.5,0-.1,0-.2,0-.4,0h-.2c-.6,0-1.3,0-2,0,0,0-.1,0-.2,0-.6,0-1.2-.1-1.8-.2-.2,0-.4,0-.6,0-.5,0-1-.2-1.4-.3-.2,0-.4,0-.6-.1-.6-.2-1.3-.3-1.9-.5-.6-.2-1.2-.4-1.9-.7-.2,0-.4-.2-.6-.2-.4-.2-.9-.4-1.3-.6-.2,0-.4-.2-.6-.3-.5-.3-1-.6-1.5-.9,0,0-.1,0-.2-.1,0,0,0,0,0,0-2.3,9.8,1.4,20.1,9.6,26.1,8.8,6.4,20.6,6.4,29.5,0,2.1-1.6,4-3.4,5.5-5.5,4.7-6.5,6-14.9,3.5-22.5-.2-.6-.4-1.2-.6-1.8,0-.2-.2-.4-.2-.6-.2-.4-.3-.8-.5-1.1-.1-.2-.2-.4-.3-.6-.2-.3-.4-.7-.6-1-.1-.2-.3-.4-.4-.6-.2-.3-.4-.6-.6-.9-.1-.2-.3-.4-.4-.6-.2-.3-.5-.6-.7-.9-.2-.2-.3-.4-.4-.5-.3-.3-.6-.6-.9-.9-.1-.1-.3-.3-.4-.4-.4-.4-.9-.8-1.4-1.2,0,0,0,0,0,0,0,.2-.1.3-.2.5h0Z"/>
    </g>
  </g>
</svg>