<?xml version="1.0" encoding="utf-8"?>
<!-- Generator: Adobe Illustrator 27.9.0, SVG Export Plug-In . SVG Version: 6.00 Build 0)  -->
<svg version="1.1" id="Layer_1" xmlns="http://www.w3.org/2000/svg" xmlns:xlink="http://www.w3.org/1999/xlink" x="0px" y="0px"
	 viewBox="0 0 284 80.3" style="enable-background:new 0 0 284 80.3;" xml:space="preserve">
<style type="text/css">
	.st0{fill:#010202;}
	.st1{fill:#020203;}
</style>
<g>
	<polygon class="st0" points="41.2,66.7 53.5,66.7 53.5,54.3 65.9,54.3 65.9,42 41.2,42 	"/>
	<polygon class="st0" points="78.2,54.3 65.9,54.3 65.9,66.7 53.5,66.7 53.5,79 78.2,79 	"/>
</g>
<g>
	<circle class="st0" cx="9.3" cy="51.2" r="9.3"/>
	<circle class="st0" cx="27.8" cy="51.2" r="9.3"/>
	<circle class="st0" cx="27.8" cy="69.8" r="9.3"/>
	<circle class="st0" cx="9.3" cy="69.8" r="9.3"/>
</g>
<path class="st0" d="M18.5,0.8C8.3,0.8,0,9.1,0,19.3s8.3,18.5,18.5,18.5s18.5-8.3,18.5-18.5S28.8,0.8,18.5,0.8z M18.5,29.6
	c-5.7,0-10.2-4.6-10.2-10.2S12.9,9.1,18.5,9.1s10.2,4.6,10.2,10.2S24.2,29.6,18.5,29.6z"/>
<g>
	
		<rect x="41.2" y="0.8" transform="matrix(-1.836970e-16 1 -1 -1.836970e-16 54.3152 -40.3724)" class="st0" width="12.4" height="12.4"/>
	
		<rect x="53.5" y="13.1" transform="matrix(-1.836970e-16 1 -1 -1.836970e-16 79.0163 -40.3724)" class="st0" width="12.4" height="12.4"/>
	
		<rect x="65.9" y="0.8" transform="matrix(-1.836970e-16 1 -1 -1.836970e-16 79.0163 -65.0735)" class="st0" width="12.4" height="12.4"/>
	
		<rect x="41.2" y="25.5" transform="matrix(-1.836970e-16 1 -1 -1.836970e-16 79.0163 -15.6712)" class="st0" width="12.4" height="12.4"/>
	
		<rect x="65.9" y="25.5" transform="matrix(-1.836970e-16 1 -1 -1.836970e-16 103.7174 -40.3724)" class="st0" width="12.4" height="12.4"/>
</g>
<g>
	<polygon class="st1" points="125.5,32.8 131.1,32.8 131.1,5.4 141.4,5.4 141.4,0.5 114.8,0.5 114.8,5.4 125.5,5.4 	"/>
	<path class="st1" d="M154.9,13.7c0.1,0,0.3,0,0.4,0c1.3,0,2,0.6,2.5,1.2c0.8,0.9,1.2,2,1.2,3.5v14.4h5.6V17.6
		c0-5.5-2.9-8.5-8.1-8.5c-4.3,0-5.8,1.5-6.8,2.7V0.6l-5.4-0.1v32.3l5.4,0.1V19.2c0-2.5,0.7-3.5,1.2-4c0.5-0.5,1.1-0.9,1.8-1.2
		C153.3,13.7,154.2,13.7,154.9,13.7z"/>
	<path class="st1" d="M213.7,55.2c-4.3,0-5.8,1.5-6.8,2.7V46.6l-5.4-0.1v32.3l5.4,0.1V65.2c0-2.5,0.7-3.5,1.2-4
		c0.5-0.5,1.1-0.9,1.8-1.2c0.6-0.3,1.4-0.2,2.2-0.2c0.1,0,0.3,0,0.4,0c1.3,0,2,0.6,2.5,1.2c0.8,0.9,1.2,2,1.2,3.5v14.4h5.6V63.7
		C221.8,58.2,218.9,55.2,213.7,55.2z"/>
	<path class="st1" d="M179.6,33.6c1.7,0,3.3-0.3,4.7-0.8c1.4-0.5,2.7-1.3,3.7-2.4c1-1.1,1.9-2.4,2.4-3.9c0.6-1.5,0.9-3.3,0.9-5.3
		c0-1.8-0.3-3.4-0.8-4.9c-0.5-1.5-1.3-2.8-2.2-3.9c-1-1.1-2.2-1.9-3.7-2.5c-1.5-0.6-3.1-0.9-5-0.9c-1.8,0-3.5,0.3-5,0.9
		c-1.5,0.6-2.7,1.4-3.7,2.5c-1,1.1-1.8,2.4-2.3,3.9c-0.5,1.5-0.8,3.2-0.8,5c0,3.9,1,6.9,3.1,9.1C173,32.5,176,33.6,179.6,33.6z
		 M173.3,21.4c0-2,0.6-3.8,1.8-5.6c1-1.4,2.5-2.1,4.6-2.1c2.1,0,3.6,0.7,4.6,2c1.2,1.7,1.7,3.5,1.7,5.6c0,2.6-0.9,4.3-1.7,5.5
		c-1,1.4-2.5,2.1-4.6,2.1c-2.1,0-3.7-0.7-4.6-2.1C174.2,25.4,173.3,23.8,173.3,21.4z"/>
	<path class="st1" d="M202.6,33.6c1.2,0,3,0,4.2-0.7c1.1-0.6,2.1-1.4,3-2.5l0,2.6h4.8v-23h-5.3v13.4c0,0.8-0.2,1.6-0.5,2.2
		c-0.3,0.7-0.8,1.2-1.3,1.7c-0.5,0.5-1.1,0.8-1.8,1.1c-0.7,0.2-1.3,0.4-2,0.4c-1.2,0-2.1-0.3-2.6-1c-0.6-0.6-0.9-1.9-0.9-3.7V9.9
		H195v14.9c0,2.8,0.6,4.9,1.7,6.3C198,32.7,200.1,33.6,202.6,33.6z"/>
	<path class="st1" d="M228.4,32.6c1.5,0,2.9-0.3,4.1-0.9c1-0.5,1.9-1.2,2.7-2.1v0.8c0.1,5.1-2.2,6.1-3.5,6.5
		c-3.7,1.4-9.8-2.2-10.2-2.6l-0.2-0.2l-2.7,4.1l0.2,0.1c4.3,2.9,8.1,3.3,11.3,3.3c3.2,0,6.3-1.3,8.2-3.6c1.6-1.9,2.2-4,2.2-8.5V9.8
		h-5.2v2.6c-1.5-1.9-2.6-3.1-6.5-3.3c-3-0.1-5.8,1-7.6,3.1c-1.9,2.2-2.9,5-2.9,8.2c0,3.7,1.5,7.2,3,9
		C223,31.5,225.4,32.6,228.4,32.6z M223.7,20.8c0-2.2,0.5-4,1.4-5.2c0.9-1.2,2.3-1.8,4-1.8c1.7,0,3.8,0.9,4.7,2.1
		c0.9,1.1,1.4,2.8,1.4,5.1v0.7c0,2.2-1,3.6-1.9,4.6c-1,1.1-2.2,1.6-4.1,1.6C227.3,27.9,223.7,26.4,223.7,20.8z"/>
	<path class="st1" d="M282.6,28.1l-0.4,0.1c-1.8,0.6-3.3,0.7-4.3,0.2c-0.8-0.4-0.8-1.3-0.8-2.3c0-0.1,0-0.2,0-0.3l0-11.9h5.9V9.8
		h-5.9V2.4l-5.5,0v7.4h-3.9v4.1h3.9v10.9c0,1.5,0.1,5.1,1.4,6.7c1,1.3,2.4,1.8,5,1.8c1.7,0,3.8-0.4,5.1-0.9l0.2-0.1L282.6,28.1z"/>
	<polygon class="st1" points="133,70.9 125.4,46.4 116.6,46.4 116.6,79 122,79 122,52.2 130.6,79 135.5,79 143.8,52.2 143.8,79 
		149.5,79 149.5,46.4 140.2,46.4 	"/>
	<path class="st1" d="M172.6,59c-2.4-3.5-6.7-3.8-8.5-3.8c-3,0-5.7,1.1-7.1,2c-0.9,0.6-2.1,1.6-3.4,3c0,0.1-0.1,0.1-0.1,0.1
		l-0.2,0.2l3.6,3.1l0.1-0.1c0.3-0.3,2.7-2.4,3.4-2.8c0.5-0.2,2.9-1.4,5.5-0.4c1.2,0.4,2.5,1.6,2.5,3.2v0.7
		c-1.2,0.1-7.2,0.8-10.8,2.7l-0.1,0c-1.1,0.6-2.3,1.2-3,2.2c-0.9,1.3-1.4,2.5-1.4,3.8c0,1.2,0.2,2.2,0.6,3c0.4,0.9,0.9,1.6,1.6,2.1
		c0.7,0.6,1.5,1,2.4,1.3c0.9,0.3,2.5,0.6,3.6,0.6c3.6,0,6.3-1.6,7.4-2.8v2.1h4.8l0-14C173.8,64.9,174.1,61.1,172.6,59z M161.8,75.5
		c-1.3-0.1-2.7-0.5-3.1-2.2c-0.5-2.4,2.3-3.4,3.6-3.7c1.5-0.4,3.7-0.8,5.1-1.1c0.7-0.1,1.1-0.2,1.4-0.3c0,0.1,0,0.1,0,0.2
		c0,1.1,0.1,4.2-1.8,5.9C165.7,75.3,164,75.7,161.8,75.5z"/>
	<path class="st1" d="M229,46.3h-0.3c-1.8,0-3.2,1.4-3.2,3.2c0,1.8,1.4,3.2,3.2,3.2h0.3c1.8,0,3.2-1.4,3.2-3.2
		C232.3,47.7,230.8,46.3,229,46.3z"/>
	<polygon class="st1" points="226.2,79 231.5,79 231.5,55.7 226.2,55.7 	"/>
	<path class="st1" d="M248.1,55c-1.4,0-2.8,0.3-4.1,1c-1.1,0.6-1.8,1.2-2.6,2.3l0-2.5h-5.1V79h5.4V65.2c0-0.8,0-1.5,0.3-2.2
		c0.3-0.7,0.7-1.3,1.2-1.8c0.5-0.5,1.1-0.9,1.8-1.2c0.7-0.3,1.2-0.4,2.1-0.4c1.2,0,2.1,0.4,2.7,1c0.5,0.6,1.4,1.8,1.4,3.7V79h5.5
		V63.6C256.6,58.2,253.4,55,248.1,55z"/>
	<path class="st1" d="M278.9,71.8c-3.7,3.4-5.8,3.4-7.3,3.4c-0.1,0-0.2,0-0.3,0c-1.9,0-3.3-0.6-4.2-1.8c-0.9-1.2-1.4-2.7-1.5-4.6
		h16.3v-2.6c0-1.6-0.2-3.1-0.6-4.5c-0.4-1.3-1-2.5-1.9-3.5c-0.8-1-1.9-1.7-3.2-2.3c-1.3-0.5-2.8-0.8-4.5-0.8c-1.8,0-3.6,0.3-4.9,0.8
		c-1.3,0.5-2.5,1.3-3.5,2.4c-1,1-1.7,2.3-2.3,3.8c-0.5,1.4-1.1,3.4-1.1,5.4c0,3.5,1,6.4,3.1,8.7c2,2.2,5.1,3.6,8.3,3.6
		c0.1,0,0.2,0,0.4,0c6.6-0.2,9.8-4,10.3-4.9l0.1-0.1l-3-3.2L278.9,71.8z M265.7,64.8c0.2-1.5,0.6-2.7,1.5-3.7c0.9-1,2.2-1.5,3.9-1.5
		c1.8,0,3.1,0.5,3.9,1.5c0.8,1,1.2,2.1,1.2,3.7H265.7z"/>
	<path class="st1" d="M260,32.7h5.6V17.5c0-5.5-2.9-8.5-8.1-8.5c-4.3,0-5.8,1.5-6.8,2.7V0.5l-5.4-0.1v32.3l5.4,0.1V19
		c0-2.5,0.7-3.5,1.2-4c0.5-0.5,1.1-0.9,1.8-1.2c0.6-0.3,1.4-0.2,2.2-0.2c0.1,0,0.3,0,0.4,0c1.3,0,2,0.6,2.5,1.2
		c0.8,0.9,1.2,2,1.2,3.5V32.7z"/>
	<path class="st1" d="M195.2,71.6c-1.2,1.3-2.3,2.3-3.2,2.8c-0.9,0.5-1.9,0.8-3.1,0.8c-1.9,0-3.4-0.7-4.5-2.2
		c-1.1-1.5-1.6-3.3-1.6-5.4c0-2.2,0.5-4,1.6-5.5c1-1.5,2.6-2.2,4.5-2.2c1,0,2,0.2,2.9,0.6c0.9,0.4,2,1.3,3.1,2.5l0.2,0.2l3.5-3.3
		l-0.1-0.2c-1.4-1.6-2.9-2.8-4.4-3.4c-1.5-0.7-3.2-1-5.1-1c-3.4,0-6.3,1.1-8.4,3.4c-2.1,2.2-3.2,5.3-3.2,9c0,3.7,1.1,6.8,3.2,9
		c2.1,2.2,4.9,3.3,8.4,3.3c2,0,3.8-0.4,5.3-1.2c1.5-0.8,3.1-2.1,4.6-4.1l0.1-0.2l-3.6-3L195.2,71.6z"/>
</g>
</svg>
