<?xml version="1.0" encoding="UTF-8"?>
<svg id="Layer_1" xmlns="http://www.w3.org/2000/svg" version="1.1" viewBox="0 0 1400 292.29">
  <!-- Generator: Adobe Illustrator 29.2.1, SVG Export Plug-In . SVG Version: 2.1.0 Build 116)  -->
  <defs>
    <style>
      .st0 {
        fill: #444348;
      }

      .st1 {
        fill: #f0f;
      }

      .st2 {
        fill: #008cff;
      }
    </style>
  </defs>
  <g>
    <path class="st0" d="M1331.52,204.06c-16.41,0-30.73-8.88-38.46-22.11l82.98-21.99,23.96-6.35c-.71-8.38-2.94-16.32-6.38-23.58-11.06-23.17-34.7-39.2-62.1-39.2-37.93,0-68.72,30.76-68.72,68.72,0,2.06.09,4.12.29,6.15.68,8,2.76,15.61,6.03,22.58,10.85,23.61,34.73,39.99,62.4,39.99,31.49,0,58.07-21.2,66.16-50.1l-23.41-6.26c-5.32,18.58-22.43,32.17-42.75,32.17ZM1331.52,115.02c16.2,0,30.37,8.64,38.14,21.55l-82.63,22.55c.24-24.41,20.05-44.11,44.49-44.11Z"/>
    <path class="st0" d="M380.67,92.12c-1.73-2.6-4.08-5.29-7.03-8.07-2.95-2.78-6.94-5.03-11.97-6.77-5.03-1.74-10.41-2.6-16.14-2.6s-10.85.87-15.36,2.6c-4.51,1.73-7.98,3.82-10.41,6.25-2.43,2.43-4.08,4.95-4.94,7.55-.87,2.6-1.3,4.77-1.3,6.51-.69,5.9,1.3,10.67,5.99,14.31,4.69,3.99,13.28,6.68,25.77,8.07,5.9,1.04,11.63,2.17,17.18,3.39,5.55,1.21,11.54,3.3,17.96,6.25,6.42,2.95,11.89,6.33,16.4,10.15,4.51,3.82,8.24,8.85,11.19,15.1,2.95,6.25,4.43,13.36,4.43,21.34.34,3.82,0,7.81-1.04,11.97s-3.12,8.68-6.25,13.54c-3.12,4.86-7.03,9.2-11.71,13.01-4.69,3.82-11.19,7.03-19.52,9.63-8.33,2.61-17.7,3.91-28.11,3.91s-19.96-1.48-28.63-4.42c-8.68-2.95-15.45-6.77-20.3-11.46-4.86-4.68-8.85-9.98-11.97-15.87-3.12-5.9-5.38-11.46-6.77-16.66-1.39-5.21-1.91-10.07-1.56-14.58h27.59c0,2.43.26,5.12.78,8.07.52,2.95,1.73,6.16,3.64,9.63,1.91,3.47,4.42,6.51,7.55,9.11,3.12,2.6,7.2,4.77,12.23,6.51,5.03,1.73,10.67,2.6,16.92,2.6,13.19,0,23.17-2.17,29.94-6.51,6.77-4.34,10.15-10.5,10.15-18.48s-3.73-14.05-11.19-19.26c-7.46-5.21-17.09-8.33-28.89-9.37-4.17-.69-7.64-1.3-10.41-1.82-2.78-.52-6.42-1.3-10.93-2.34-4.51-1.04-8.33-2.34-11.45-3.91-3.12-1.56-6.51-3.47-10.15-5.73-3.64-2.26-6.51-5.03-8.59-8.33s-3.82-7.2-5.21-11.71c-1.39-4.51-2.08-9.89-2.08-16.14,0-3.82.43-7.64,1.3-11.45.87-3.82,2.86-8.16,5.99-13.02,3.12-4.86,6.77-9.11,10.93-12.76,4.17-3.64,9.81-6.77,16.92-9.37,7.11-2.6,15.01-3.91,23.69-3.91,7.64,0,15.01,1.13,22.12,3.39,7.12,2.25,13.19,5.12,18.22,8.59,5.03,3.47,9.37,7.2,13.01,11.19,3.64,3.99,6.42,7.9,8.33,11.71,1.91,3.82,3.04,7.29,3.38,10.41l-26.03,7.29c-.69-2.43-1.91-4.95-3.64-7.55Z"/>
    <path class="st0" d="M424.53,90.29h25.87v82.8c0,19.72,9.49,29.57,28.46,29.57,6.16,0,11.4-1.11,15.71-3.33,4.31-2.22,7.33-5.12,9.06-8.69,1.73-3.57,2.83-6.71,3.33-9.42.49-2.71.74-5.42.74-8.13v-82.8h25.87l.37,68.75c-.25,2.71-.46,5.87-.63,9.47-.32,12.41-1.99,22.1-5.01,29.06-2.9,6.35-6.19,11.61-9.89,15.8-2.71,2.96-8.07,6.41-16.08,10.35-6.04,2.96-13.95,4.35-23.75,4.16-9.18-.06-17.34-1.69-24.49-4.89-7.14-3.2-12.51-7.02-16.08-11.46-3.57-4.43-6.47-9.42-8.69-14.97-2.22-5.55-3.57-10.1-4.07-13.68-.49-3.57-.74-6.83-.74-9.79v-82.8Z"/>
    <path class="st0" d="M576.33,47.61v56.74c0,1.39.09,2.08.26,2.08s.61-.35,1.3-1.04c11.45-9.37,25.68-14.23,42.69-14.58,15.96,0,30.11,4.86,42.43,14.58,12.32,9.72,20.22,22.21,23.69,37.48,1.73,5.55,2.6,11.1,2.6,16.66,0,19.09-6.68,35.32-20.04,48.68-13.36,13.36-29.59,20.04-48.67,20.04-16.66,0-30.72-4.69-42.17-14.05-1.39-1.05-2.08-.87-2.08.52v13.54h-24.99V47.61h24.99ZM651.55,190.51c8.5-8.51,12.76-18.83,12.76-30.98s-4.25-22.73-12.76-31.76c-8.5-9.03-18.91-13.54-31.24-13.54s-22.82,4.51-31.5,13.54c-8.67,9.03-13.01,19.61-13.01,31.76s4.34,22.47,13.01,30.98c8.68,8.51,19.18,12.76,31.5,12.76s22.73-4.25,31.24-12.76Z"/>
    <path class="st0" d="M732.43,228.26h-27.07V47.09h27.07v181.17Z"/>
    <path class="st0" d="M754.03,228.26v-83.81c0-15.27,5.12-27.94,15.36-38,10.24-10.07,23.17-15.1,38.79-15.1,9.37,0,17.44,1.39,24.21,4.16,7.46,2.78,12.24,5.55,14.32,8.33l3.64,4.69c1.04-1.39,2.43-2.95,4.16-4.69,1.74-1.73,5.99-4.25,12.76-7.55,6.77-3.3,14.84-4.94,24.21-4.94,16.66,0,29.85,4.6,39.57,13.79,9.72,9.2,14.58,22.3,14.58,39.31v83.81h-26.03v-83.81l-.26-2.6c-.17-1.73-.78-4.16-1.82-7.29-1.04-3.12-2.43-5.99-4.17-8.59-1.73-2.6-4.51-4.94-8.33-7.03-3.82-2.08-8.33-3.12-13.54-3.12s-9.72,1.04-13.54,3.12c-3.82,2.08-6.59,4.34-8.33,6.77-1.73,2.43-3.12,5.21-4.16,8.33-1.04,3.12-1.65,5.38-1.82,6.77-.17,1.39-.26,2.6-.26,3.65v83.81h-26.03v-83.81l-.26-2.87c-.18-1.91-.87-4.42-2.08-7.55-1.21-3.12-2.69-5.9-4.42-8.33-1.74-2.43-4.6-4.69-8.59-6.77-3.99-2.08-8.59-3.12-13.79-3.12-5.55,0-10.24,1.04-14.06,3.12-3.82,2.08-6.6,4.51-8.33,7.29-1.74,2.78-3.04,5.55-3.91,8.33s-1.3,5.21-1.3,7.29v86.42h-26.55Z"/>
    <path class="st0" d="M1097.28,228.26h-25.51v-15.62l-.52.52c-10.76,10.07-25.16,15.1-43.21,15.1-16.66,0-32.19-6.16-46.59-18.48-14.4-12.32-21.61-29.07-21.61-50.24s7.11-38.26,21.34-50.24c14.23-11.97,29.85-17.96,46.85-17.96,19.44,0,33.84,4.69,43.21,14.06.35.35.52.17.52-.52v-12.5h25.51v135.88ZM1059.27,190.51c8.68-8.51,13.02-18.74,13.02-30.71s-4.34-22.39-13.02-31.24c-8.68-8.85-19.09-13.27-31.24-13.27s-22.56,4.42-31.24,13.27c-8.68,8.85-13.02,19.26-13.02,31.24s4.34,22.21,13.02,30.71c8.68,8.51,19.09,12.76,31.24,12.76s22.56-4.25,31.24-12.76Z"/>
    <path class="st0" d="M1249.52,93.42v120.78c0,5.9-.61,12.06-1.82,18.48-1.21,6.42-3.47,13.27-6.77,20.56-3.3,7.29-7.29,13.71-11.97,19.27-4.69,5.55-11.19,10.23-19.52,14.05-8.33,3.82-17.7,5.73-28.11,5.73-19.44,0-34.62-4.6-45.55-13.79-10.93-9.19-18.14-20.04-21.61-32.54l24.47-6.24c6.25,18.74,20.48,27.93,42.69,27.59,10.76,0,19.61-3.3,26.55-9.89,6.94-6.6,11.45-13.45,13.54-20.57,2.08-7.12,3.12-14.32,3.12-21.61v-2.6l-1.04,1.04c-9.72,9.72-23.77,14.58-42.17,14.58-16.66,0-32.36-6.16-47.12-18.48-14.75-12.32-22.12-29.07-22.12-50.24s7.03-38.26,21.08-50.24,30.11-17.96,48.16-17.96c10.41,0,19.35,1.56,26.81,4.69,7.46,3.12,12.58,6.42,15.36,9.89l1.04,1.56v-14.06h24.99ZM1211.51,190.51c8.68-8.51,13.02-18.74,13.02-30.71s-4.34-22.39-13.02-31.24c-8.68-8.85-19.09-13.27-31.24-13.27s-22.56,4.42-31.24,13.27c-8.68,8.85-13.02,19.26-13.02,31.24s4.34,22.21,13.02,30.71c8.68,8.51,19.09,12.76,31.24,12.76s22.56-4.25,31.24-12.76Z"/>
  </g>
  <g>
    <path class="st2" d="M123.77,193.75c35.24-9.34,60.91-36.64,69.83-69.46,11.82,11.86,20.79,26.88,25.39,44.23,13.94,52.59-17.4,106.52-69.99,120.45-52.59,13.94-106.52-17.4-120.46-69.99-4.6-17.35-4.24-34.84.15-51,24.01,24.09,59.83,35.1,95.07,25.76Z"/>
    <path class="st1" d="M98.53,98.53c-35.24,9.34-60.91,36.64-69.83,69.46-11.82-11.86-20.79-26.88-25.39-44.23C-10.63,71.18,20.71,17.25,73.3,3.31c52.59-13.94,106.52,17.4,120.46,69.99,4.6,17.35,4.24,34.84-.15,51-24.01-24.09-59.83-35.1-95.07-25.76Z"/>
  </g>
</svg>