<?xml version="1.0" encoding="UTF-8"?>
<svg id="Layer_2" data-name="Layer 2" xmlns="http://www.w3.org/2000/svg" viewBox="0 0 100.62 98.14">
  <g id="Layer_1-2" data-name="Layer 1">
    <g>
      <path d="M48.2,49.51c-.12-.53-.23-1.06-.32-1.59-.04-.24-.07-.49-.1-.74-.06-.44-.12-.88-.16-1.33-.02-.27-.04-.54-.05-.81-.03-.42-.04-.84-.05-1.26,0-.28,0-.56,0-.84,0-.42.02-.83.05-1.25.02-.28.04-.56.06-.83.04-.42.09-.85.15-1.27.04-.26.07-.53.11-.79.08-.46.18-.92.28-1.38.05-.22.09-.44.14-.66.17-.68.35-1.35.57-2.02,2.77-8.52,9.5-15.26,18.01-18.02.63-.2,1.27-.38,1.92-.54.19-.05.39-.09.58-.13.47-.11.95-.2,1.42-.28.2-.03.4-.07.6-.1.59-.09,1.17-.16,1.77-.21.07,0,.14-.02.21-.02.02,0,.03,0,.05,0C69.58,6.12,60.52,0,50.31,0c-10.89,0-20.46,6.95-23.82,17.3h0c-.61,1.88-.99,3.82-1.15,5.78-.05.65-.08,1.31-.08,1.97,0,7.99,3.87,15.56,10.34,20.27.51.37,1.02.71,1.55,1.04.18.11.36.21.54.31.36.21.71.41,1.08.6.21.11.43.22.65.32.34.16.68.32,1.02.47.23.1.46.19.7.29.34.13.69.26,1.04.38.24.08.47.16.71.24.36.11.73.21,1.09.31.23.06.46.12.69.18.41.09.82.17,1.24.24.19.03.38.08.58.11.61.09,1.21.17,1.83.22,0-.02,0-.03-.01-.05-.04-.15-.06-.31-.1-.46Z"/>
      <path d="M47.66,52.96c-.53-.05-1.07-.11-1.59-.19-.25-.04-.5-.09-.75-.14-.43-.08-.86-.16-1.29-.26-.27-.06-.54-.13-.81-.2-.4-.1-.8-.22-1.2-.34-.27-.08-.54-.17-.81-.27-.39-.13-.78-.28-1.16-.43-.26-.1-.52-.21-.78-.32-.39-.17-.78-.35-1.16-.53-.24-.12-.48-.23-.72-.35-.41-.22-.82-.45-1.22-.69-.2-.12-.39-.22-.59-.34-.59-.37-1.18-.75-1.74-1.17-7.25-5.27-11.58-13.75-11.58-22.69,0-.67.03-1.33.08-1.99.01-.2.03-.4.05-.6.04-.48.1-.96.17-1.44.03-.2.06-.41.09-.61.1-.58.21-1.16.34-1.73.02-.07.03-.15.05-.22,0-.01,0-.03,0-.05-10.04.79-18.66,7.52-21.82,17.23-3.36,10.35.29,21.61,9.1,28,2.13,1.55,4.48,2.75,6.98,3.56,7.6,2.47,15.99,1.13,22.47-3.57.51-.37.99-.75,1.47-1.16.15-.13.3-.27.45-.4.31-.28.62-.56.92-.85.17-.17.33-.34.5-.51.26-.27.52-.55.78-.84.16-.19.32-.38.48-.57.24-.29.47-.58.69-.88.15-.2.3-.4.44-.6.22-.31.43-.63.63-.95.13-.2.26-.39.38-.6.22-.36.42-.73.62-1.1.09-.17.19-.34.28-.51.28-.55.53-1.1.77-1.67-.02,0-.03,0-.05,0-.16-.02-.32-.04-.48-.06Z"/>
      <path d="M51.63,48.94c.47-.28.93-.54,1.41-.79.22-.12.46-.22.68-.33.39-.19.79-.38,1.19-.55.26-.11.52-.21.78-.31.38-.15.77-.29,1.16-.43.27-.09.54-.18.82-.26.39-.12.78-.23,1.18-.33.28-.07.55-.14.83-.2.41-.09.82-.17,1.24-.25.27-.05.53-.1.8-.14.46-.07.92-.12,1.39-.16.23-.02.45-.05.68-.07.69-.05,1.39-.08,2.1-.08h0c8.96,0,17.45,4.32,22.7,11.56.39.54.76,1.09,1.11,1.66.1.17.2.34.3.51.25.42.49.84.71,1.27.09.18.19.36.28.54.26.53.51,1.06.74,1.6.03.07.07.14.09.21,0,.01.01.03.02.04,7.66-6.54,10.68-17.05,7.52-26.76-3.36-10.35-12.94-17.31-23.82-17.31h0c-1.97,0-3.93.23-5.85.69-.64.15-1.27.33-1.9.53-7.59,2.47-13.61,8.49-16.08,16.1-.19.6-.36,1.2-.51,1.8-.05.19-.08.39-.13.59-.09.41-.18.82-.25,1.23-.04.23-.07.47-.1.7-.05.38-.1.76-.14,1.14-.02.24-.04.49-.06.73-.02.38-.04.75-.04,1.12,0,.24,0,.49,0,.73,0,.39.02.77.05,1.16.01.23.02.46.04.69.04.43.09.85.15,1.28.03.19.04.37.07.56.1.6.22,1.21.36,1.81.01,0,.03-.02.04-.03.13-.08.26-.15.4-.23Z"/>
      <path d="M53.25,52.05c.4.35.8.71,1.18,1.09.18.18.35.36.52.54.31.32.61.64.9.98.18.21.35.42.52.63.27.32.53.65.78.99.17.22.33.45.49.68.24.34.47.68.69,1.04.15.24.3.47.44.71.22.37.42.74.62,1.11.13.24.26.47.38.71.21.42.4.85.59,1.27.09.21.19.41.28.62.26.64.51,1.3.72,1.97,2.77,8.52,1.28,17.93-3.98,25.16-.39.54-.81,1.06-1.23,1.56-.13.15-.26.3-.39.45-.32.36-.65.72-.98,1.06-.14.15-.29.29-.43.44-.41.41-.84.8-1.28,1.18-.06.06-.12.11-.19.17-.01,0-.02.02-.03.03,8.59,5.26,19.51,4.89,27.78-1.12,8.81-6.4,12.47-17.65,9.1-28-.81-2.5-2.01-4.85-3.56-6.98-4.69-6.46-12.27-10.32-20.28-10.32h0c-.63,0-1.25.03-1.87.07-.2.01-.4.04-.6.06-.42.04-.83.08-1.24.15-.24.03-.47.08-.7.12-.37.07-.75.14-1.11.22-.24.06-.48.12-.72.18-.36.09-.71.19-1.07.3-.24.07-.48.15-.71.23-.36.12-.71.25-1.06.39-.22.09-.44.17-.66.26-.38.16-.76.34-1.13.52-.18.09-.36.17-.54.26-.54.28-1.08.58-1.6.9.01,0,.02.02.04.03.12.11.24.22.36.33Z"/>
      <path d="M50.78,54.56c-.21.48-.43.96-.66,1.43-.11.23-.24.45-.36.68-.21.39-.42.77-.64,1.14-.14.24-.29.47-.44.71-.22.35-.45.7-.69,1.04-.16.23-.33.46-.5.69-.25.33-.5.65-.77.97-.18.22-.36.43-.54.64-.28.32-.57.63-.87.94-.18.19-.37.39-.56.57-.33.33-.68.64-1.04.96-.17.15-.33.31-.5.45-.53.45-1.08.89-1.65,1.3-.55.4-1.11.76-1.68,1.12-.17.1-.33.2-.5.3-.43.25-.87.5-1.31.73-.17.09-.34.18-.51.26-.6.3-1.2.58-1.81.83-.02,0-.04.01-.06.02-.6.24-1.2.46-1.81.66-.19.06-.37.12-.56.17-.47.14-.94.28-1.42.4-.18.05-.37.1-.55.14-.64.15-1.28.28-1.93.38-.05,0-.1.01-.15.02-.6.09-1.2.16-1.81.21-.2.02-.4.03-.6.04-.49.03-.97.05-1.46.06-.13,0-.25.01-.38.01-.07,0-.13,0-.2,0-.65,0-1.3-.03-1.95-.08-.05,0-.11-.01-.16-.02-.6-.05-1.2-.12-1.8-.21-.2-.03-.4-.07-.6-.1-.47-.08-.95-.18-1.42-.28-.19-.04-.39-.08-.58-.13-.64-.16-1.28-.33-1.92-.54-.63-.21-1.25-.44-1.87-.69-.19-.07-.37-.16-.55-.24-.44-.19-.88-.39-1.31-.6-.19-.09-.37-.18-.56-.28-.52-.27-1.03-.55-1.53-.86-.07-.04-.14-.08-.21-.12-.01,0-.03-.01-.04-.02-2.35,9.79,1.38,20.07,9.65,26.07,8.81,6.4,20.64,6.4,29.45,0,2.13-1.55,3.99-3.41,5.54-5.54,4.69-6.46,6.02-14.86,3.55-22.47-.19-.6-.41-1.18-.64-1.75-.08-.19-.16-.37-.25-.56-.17-.38-.34-.76-.52-1.14-.11-.21-.22-.42-.33-.63-.18-.34-.36-.67-.56-1-.13-.21-.26-.42-.39-.63-.2-.32-.41-.62-.62-.93-.14-.2-.28-.4-.43-.6-.23-.31-.47-.61-.71-.9-.15-.18-.29-.36-.44-.54-.28-.32-.57-.63-.87-.94-.13-.14-.26-.28-.39-.41-.43-.43-.89-.85-1.36-1.25,0,.01-.01.03-.02.04-.06.16-.14.31-.21.46Z"/>
    </g>
  </g>
</svg>